<svg width="134" height="134" viewBox="0 0 134 134" fill="none" xmlns="http://www.w3.org/2000/svg">
<circle cx="67" cy="67" r="67" fill="#D9D9D9"/>
<path d="M9.57812 62.5625C9.27604 62.5625 9.02083 62.4531 8.8125 62.2344C8.61458 62.0156 8.51562 61.7708 8.51562 61.5C8.51562 61.2188 8.61458 60.974 8.8125 60.7656C9.02083 60.5469 9.27604 60.4375 9.57812 60.4375C9.77604 60.4375 9.95312 60.4896 10.1094 60.5938C10.276 60.6875 10.4062 60.8177 10.5 60.9844C10.5938 61.1406 10.6406 61.3125 10.6406 61.5C10.6406 61.6771 10.5938 61.849 10.5 62.0156C10.4062 62.1823 10.276 62.3177 10.1094 62.4219C9.95312 62.5156 9.77604 62.5625 9.57812 62.5625ZM9.09375 72V64.1875H10.375V72H9.09375ZM7.85938 65.3906V64.1875H10.375V65.3906H7.85938ZM16.8219 72.2344C16.2281 72.2344 15.6813 72.1302 15.1813 71.9219C14.6917 71.7031 14.2594 71.4062 13.8844 71.0312C13.5198 70.6458 13.2385 70.2083 13.0406 69.7188C12.8427 69.2188 12.7438 68.6927 12.7438 68.1406C12.7438 67.5885 12.8427 67.0677 13.0406 66.5781C13.2385 66.0781 13.5198 65.6406 13.8844 65.2656C14.2594 64.8802 14.6917 64.5781 15.1813 64.3594C15.6813 64.1406 16.2281 64.0312 16.8219 64.0312C17.3948 64.0312 17.8896 64.125 18.3063 64.3125C18.7229 64.4896 19.0094 64.651 19.1656 64.7969V66.0938C18.874 65.875 18.5406 65.6875 18.1656 65.5312C17.7906 65.3646 17.3427 65.2812 16.8219 65.2812C16.2698 65.2812 15.7854 65.4167 15.3688 65.6875C14.9521 65.9479 14.6292 66.2969 14.4 66.7344C14.1813 67.1615 14.0719 67.6302 14.0719 68.1406C14.0719 68.6406 14.1813 69.1094 14.4 69.5469C14.6292 69.974 14.9521 70.3229 15.3688 70.5938C15.7854 70.8542 16.2698 70.9844 16.8219 70.9844C17.3427 70.9844 17.7906 70.9062 18.1656 70.75C18.5406 70.5833 18.874 70.3906 19.1656 70.1719V71.4688C19.0094 71.625 18.7229 71.7917 18.3063 71.9688C17.8896 72.1458 17.3948 72.2344 16.8219 72.2344ZM24.9563 72.2344C24.3625 72.2344 23.8156 72.1302 23.3156 71.9219C22.826 71.7031 22.3938 71.4062 22.0188 71.0312C21.6542 70.6458 21.3729 70.2083 21.175 69.7188C20.9771 69.2188 20.8781 68.6927 20.8781 68.1406C20.8781 67.5885 20.9771 67.0677 21.175 66.5781C21.3729 66.0781 21.6542 65.6406 22.0188 65.2656C22.3938 64.8802 22.826 64.5781 23.3156 64.3594C23.8156 64.1406 24.3625 64.0312 24.9563 64.0312C25.55 64.0312 26.0917 64.1406 26.5813 64.3594C27.0813 64.5781 27.5135 64.8802 27.8781 65.2656C28.2531 65.6406 28.5396 66.0781 28.7375 66.5781C28.9354 67.0677 29.0344 67.5885 29.0344 68.1406C29.0344 68.6927 28.9354 69.2188 28.7375 69.7188C28.5396 70.2083 28.2531 70.6458 27.8781 71.0312C27.5135 71.4062 27.0813 71.7031 26.5813 71.9219C26.0917 72.1302 25.55 72.2344 24.9563 72.2344ZM24.9563 70.9844C25.5188 70.9844 26.0031 70.8542 26.4094 70.5938C26.826 70.3229 27.1438 69.974 27.3625 69.5469C27.5917 69.1094 27.7063 68.6406 27.7063 68.1406C27.7063 67.6302 27.5917 67.1615 27.3625 66.7344C27.1438 66.2969 26.826 65.9479 26.4094 65.6875C26.0031 65.4167 25.5188 65.2812 24.9563 65.2812C24.4042 65.2812 23.9198 65.4167 23.5031 65.6875C23.0865 65.9479 22.7635 66.2969 22.5344 66.7344C22.3156 67.1615 22.2063 67.6302 22.2063 68.1406C22.2063 68.6406 22.3156 69.1094 22.5344 69.5469C22.7635 69.974 23.0865 70.3229 23.5031 70.5938C23.9198 70.8542 24.4042 70.9844 24.9563 70.9844ZM36.7313 72L36.7156 67.3594C36.7156 66.6823 36.5646 66.1667 36.2625 65.8125C35.9708 65.4583 35.5177 65.2812 34.9031 65.2812C34.4865 65.2812 34.0698 65.4375 33.6531 65.75C33.2469 66.0521 32.8875 66.4062 32.575 66.8125V65.4219C32.7417 65.2135 32.9552 65.0052 33.2156 64.7969C33.476 64.5781 33.7677 64.3958 34.0906 64.25C34.424 64.1042 34.7677 64.0312 35.1219 64.0312C35.6531 64.0312 36.1375 64.151 36.575 64.3906C37.0125 64.6198 37.3615 64.974 37.6219 65.4531C37.8823 65.9219 38.0125 66.5156 38.0125 67.2344V72H36.7313ZM31.2938 72V64.1875H32.575V72H31.2938ZM41.8344 62.5625C41.5323 62.5625 41.2771 62.4531 41.0687 62.2344C40.8708 62.0156 40.7719 61.7708 40.7719 61.5C40.7719 61.2188 40.8708 60.974 41.0687 60.7656C41.2771 60.5469 41.5323 60.4375 41.8344 60.4375C42.0323 60.4375 42.2094 60.4896 42.3656 60.5938C42.5323 60.6875 42.6625 60.8177 42.7562 60.9844C42.85 61.1406 42.8969 61.3125 42.8969 61.5C42.8969 61.6771 42.85 61.849 42.7562 62.0156C42.6625 62.1823 42.5323 62.3177 42.3656 62.4219C42.2094 62.5156 42.0323 62.5625 41.8344 62.5625ZM41.35 72V64.1875H42.6312V72H41.35ZM40.1156 65.3906V64.1875H42.6312V65.3906H40.1156ZM53.4781 72.2344C52.8115 72.2344 52.2021 72.0677 51.65 71.7344C51.0979 71.3906 50.6552 70.9167 50.3219 70.3125C49.999 69.7083 49.8375 69.0104 49.8375 68.2188C49.8375 67.3542 49.999 66.6094 50.3219 65.9844C50.6552 65.3594 51.1083 64.8802 51.6813 64.5469C52.2542 64.2031 52.8948 64.0312 53.6031 64.0312C54.051 64.0312 54.5042 64.1406 54.9625 64.3594C55.4313 64.5677 55.8323 64.8594 56.1656 65.2344V60.75H57.4469V72H56.1656V70.6719C55.8948 71.0885 55.525 71.4531 55.0563 71.7656C54.5979 72.0781 54.0719 72.2344 53.4781 72.2344ZM53.6813 70.9844C54.1604 70.9844 54.5875 70.8594 54.9625 70.6094C55.3375 70.3594 55.6344 70.0156 55.8531 69.5781C56.0719 69.1302 56.176 68.6302 56.1656 68.0781L56.15 66.5781C55.8271 66.1719 55.4781 65.8594 55.1031 65.6406C54.7385 65.4219 54.3167 65.3125 53.8375 65.3125C53.275 65.3125 52.7958 65.4531 52.4 65.7344C52.0042 66.0052 51.6969 66.3594 51.4781 66.7969C51.2698 67.2344 51.1656 67.7083 51.1656 68.2188C51.1656 68.7188 51.2698 69.1823 51.4781 69.6094C51.6865 70.026 51.9781 70.3594 52.3531 70.6094C52.7385 70.8594 53.1813 70.9844 53.6813 70.9844ZM63.7844 72.2344C63.1906 72.2344 62.6437 72.1302 62.1437 71.9219C61.6542 71.7031 61.2219 71.4062 60.8469 71.0312C60.4823 70.6458 60.201 70.2083 60.0031 69.7188C59.8052 69.2188 59.7062 68.6927 59.7062 68.1406C59.7062 67.5885 59.8052 67.0677 60.0031 66.5781C60.201 66.0781 60.4823 65.6406 60.8469 65.2656C61.2219 64.8802 61.6542 64.5781 62.1437 64.3594C62.6437 64.1406 63.1906 64.0312 63.7844 64.0312C64.3781 64.0312 64.9198 64.1406 65.4094 64.3594C65.9094 64.5781 66.3417 64.8802 66.7062 65.2656C67.0812 65.6406 67.3677 66.0781 67.5656 66.5781C67.7635 67.0677 67.8625 67.5885 67.8625 68.1406C67.8625 68.6927 67.7635 69.2188 67.5656 69.7188C67.3677 70.2083 67.0812 70.6458 66.7062 71.0312C66.3417 71.4062 65.9094 71.7031 65.4094 71.9219C64.9198 72.1302 64.3781 72.2344 63.7844 72.2344ZM63.7844 70.9844C64.3469 70.9844 64.8312 70.8542 65.2375 70.5938C65.6542 70.3229 65.9719 69.974 66.1906 69.5469C66.4198 69.1094 66.5344 68.6406 66.5344 68.1406C66.5344 67.6302 66.4198 67.1615 66.1906 66.7344C65.9719 66.2969 65.6542 65.9479 65.2375 65.6875C64.8312 65.4167 64.3469 65.2812 63.7844 65.2812C63.2323 65.2812 62.7479 65.4167 62.3312 65.6875C61.9146 65.9479 61.5917 66.2969 61.3625 66.7344C61.1437 67.1615 61.0344 67.6302 61.0344 68.1406C61.0344 68.6406 61.1437 69.1094 61.3625 69.5469C61.5917 69.974 61.9146 70.3229 62.3312 70.5938C62.7479 70.8542 63.2323 70.9844 63.7844 70.9844ZM74.9594 75.75V64.1875H76.2406V65.5156C76.5115 65.099 76.876 64.75 77.3344 64.4688C77.8031 64.1771 78.3344 64.0312 78.9281 64.0312C79.6052 64.0312 80.2146 64.1979 80.7562 64.5312C81.3083 64.8542 81.7458 65.3125 82.0687 65.9062C82.4021 66.4896 82.5687 67.1771 82.5687 67.9688C82.5687 68.8229 82.4021 69.5729 82.0687 70.2188C81.7458 70.8542 81.2979 71.349 80.725 71.7031C80.1625 72.0573 79.5219 72.2344 78.8031 72.2344C78.3552 72.2344 77.8969 72.1146 77.4281 71.875C76.9698 71.6354 76.574 71.3281 76.2406 70.9531V75.75H74.9594ZM78.5687 70.9844C79.1312 70.9844 79.6104 70.8385 80.0062 70.5469C80.4021 70.2552 80.7042 69.8802 80.9125 69.4219C81.1312 68.9531 81.2406 68.4688 81.2406 67.9688C81.2406 67.4583 81.1365 67.0052 80.9281 66.6094C80.7198 66.2031 80.4281 65.8802 80.0531 65.6406C79.6781 65.401 79.2354 65.2812 78.725 65.2812C78.2562 65.2812 77.8292 65.401 77.4437 65.6406C77.0687 65.8802 76.7719 66.2135 76.5531 66.6406C76.3448 67.0573 76.2406 67.5469 76.2406 68.1094L76.2562 69.6094C76.5896 70.0156 76.9385 70.349 77.3031 70.6094C77.6677 70.8594 78.0896 70.9844 78.5687 70.9844ZM84.8281 72V64.1875H86.1094V72H84.8281ZM86.1094 67.2812V65.75C86.4115 65.2292 86.776 64.8125 87.2031 64.5C87.6302 64.1875 88.0677 64.0312 88.5156 64.0312C88.8177 64.0312 89.0885 64.0833 89.3281 64.1875V65.6719C89.1719 65.5781 89.0104 65.5052 88.8438 65.4531C88.6771 65.401 88.5052 65.375 88.3281 65.375C87.7969 65.375 87.3646 65.5625 87.0312 65.9375C86.7083 66.3125 86.401 66.7604 86.1094 67.2812ZM94.65 72.2344C94.0563 72.2344 93.5094 72.1302 93.0094 71.9219C92.5198 71.7031 92.0875 71.4062 91.7125 71.0312C91.3479 70.6458 91.0667 70.2083 90.8688 69.7188C90.6708 69.2188 90.5719 68.6927 90.5719 68.1406C90.5719 67.5885 90.6708 67.0677 90.8688 66.5781C91.0667 66.0781 91.3479 65.6406 91.7125 65.2656C92.0875 64.8802 92.5198 64.5781 93.0094 64.3594C93.5094 64.1406 94.0563 64.0312 94.65 64.0312C95.2438 64.0312 95.7854 64.1406 96.275 64.3594C96.775 64.5781 97.2073 64.8802 97.5719 65.2656C97.9469 65.6406 98.2333 66.0781 98.4313 66.5781C98.6292 67.0677 98.7281 67.5885 98.7281 68.1406C98.7281 68.6927 98.6292 69.2188 98.4313 69.7188C98.2333 70.2083 97.9469 70.6458 97.5719 71.0312C97.2073 71.4062 96.775 71.7031 96.275 71.9219C95.7854 72.1302 95.2438 72.2344 94.65 72.2344ZM94.65 70.9844C95.2125 70.9844 95.6969 70.8542 96.1031 70.5938C96.5198 70.3229 96.8375 69.974 97.0563 69.5469C97.2854 69.1094 97.4 68.6406 97.4 68.1406C97.4 67.6302 97.2854 67.1615 97.0563 66.7344C96.8375 66.2969 96.5198 65.9479 96.1031 65.6875C95.6969 65.4167 95.2125 65.2812 94.65 65.2812C94.0979 65.2812 93.6135 65.4167 93.1969 65.6875C92.7802 65.9479 92.4573 66.2969 92.2281 66.7344C92.0094 67.1615 91.9 67.6302 91.9 68.1406C91.9 68.6406 92.0094 69.1094 92.2281 69.5469C92.4573 69.974 92.7802 70.3229 93.1969 70.5938C93.6135 70.8542 94.0979 70.9844 94.65 70.9844ZM102.019 60.4375C102.217 60.4375 102.394 60.4896 102.55 60.5938C102.717 60.6875 102.847 60.8177 102.941 60.9844C103.034 61.1406 103.081 61.3125 103.081 61.5C103.081 61.6771 103.034 61.849 102.941 62.0156C102.847 62.1823 102.717 62.3177 102.55 62.4219C102.394 62.5156 102.217 62.5625 102.019 62.5625C101.821 62.5625 101.639 62.5156 101.472 62.4219C101.316 62.3177 101.191 62.1823 101.097 62.0156C101.003 61.849 100.956 61.6771 100.956 61.5C100.956 61.2188 101.055 60.974 101.253 60.7656C101.461 60.5469 101.717 60.4375 102.019 60.4375ZM100.159 75.9844L99.5813 74.8281C100.269 74.4948 100.769 74.125 101.081 73.7188C101.404 73.3125 101.566 72.7917 101.566 72.1562V65.3906H100.331V64.1875H102.847V71.9688C102.847 73.0208 102.602 73.8698 102.113 74.5156C101.633 75.1615 100.982 75.651 100.159 75.9844ZM109.184 72.2344C108.591 72.2344 108.044 72.1302 107.544 71.9219C107.054 71.7031 106.622 71.4062 106.247 71.0312C105.882 70.6458 105.601 70.2083 105.403 69.7188C105.205 69.2188 105.106 68.6927 105.106 68.1406C105.106 67.401 105.268 66.7188 105.591 66.0938C105.914 65.4688 106.356 64.9688 106.919 64.5938C107.492 64.2188 108.143 64.0312 108.872 64.0312C109.674 64.0312 110.341 64.1979 110.872 64.5312C111.403 64.8646 111.799 65.3177 112.059 65.8906C112.33 66.4635 112.466 67.1094 112.466 67.8281V68.5938H106.309V67.5H111.2C111.148 66.9896 111.002 66.5729 110.762 66.25C110.533 65.9271 110.252 65.6875 109.919 65.5312C109.585 65.3646 109.236 65.2812 108.872 65.2812C108.372 65.2812 107.94 65.4167 107.575 65.6875C107.21 65.9479 106.929 66.2969 106.731 66.7344C106.533 67.1615 106.434 67.6302 106.434 68.1406C106.434 68.6406 106.544 69.1094 106.762 69.5469C106.992 69.974 107.315 70.3229 107.731 70.5938C108.148 70.8542 108.632 70.9844 109.184 70.9844C109.747 70.9844 110.268 70.8438 110.747 70.5625C111.236 70.2708 111.648 69.9531 111.981 69.6094V71C111.835 71.1771 111.617 71.3646 111.325 71.5625C111.044 71.75 110.716 71.9062 110.341 72.0312C109.976 72.1667 109.591 72.2344 109.184 72.2344ZM117.756 72.2344C117.319 72.2344 116.939 72.1458 116.616 71.9688C116.293 71.7812 116.043 71.5208 115.866 71.1875C115.689 70.8542 115.6 70.4688 115.6 70.0312V65.3906H114.1V65.0156C114.61 64.7865 115.037 64.4115 115.381 63.8906C115.725 63.3594 116.027 62.7083 116.287 61.9375H116.881V64.1875H119.397V65.3906H116.881V69.9688C116.881 70.2917 116.985 70.5469 117.194 70.7344C117.412 70.9219 117.694 71.0156 118.037 71.0156C118.35 71.0156 118.631 70.9792 118.881 70.9062C119.142 70.8229 119.35 70.7344 119.506 70.6406V71.7656C119.298 71.9323 119.053 72.0521 118.772 72.125C118.491 72.1979 118.152 72.2344 117.756 72.2344ZM125.453 72.2344C124.859 72.2344 124.312 72.1302 123.812 71.9219C123.323 71.7031 122.891 71.4062 122.516 71.0312C122.151 70.6458 121.87 70.2083 121.672 69.7188C121.474 69.2188 121.375 68.6927 121.375 68.1406C121.375 67.5885 121.474 67.0677 121.672 66.5781C121.87 66.0781 122.151 65.6406 122.516 65.2656C122.891 64.8802 123.323 64.5781 123.812 64.3594C124.312 64.1406 124.859 64.0312 125.453 64.0312C126.047 64.0312 126.589 64.1406 127.078 64.3594C127.578 64.5781 128.01 64.8802 128.375 65.2656C128.75 65.6406 129.036 66.0781 129.234 66.5781C129.432 67.0677 129.531 67.5885 129.531 68.1406C129.531 68.6927 129.432 69.2188 129.234 69.7188C129.036 70.2083 128.75 70.6458 128.375 71.0312C128.01 71.4062 127.578 71.7031 127.078 71.9219C126.589 72.1302 126.047 72.2344 125.453 72.2344ZM125.453 70.9844C126.016 70.9844 126.5 70.8542 126.906 70.5938C127.323 70.3229 127.641 69.974 127.859 69.5469C128.089 69.1094 128.203 68.6406 128.203 68.1406C128.203 67.6302 128.089 67.1615 127.859 66.7344C127.641 66.2969 127.323 65.9479 126.906 65.6875C126.5 65.4167 126.016 65.2812 125.453 65.2812C124.901 65.2812 124.417 65.4167 124 65.6875C123.583 65.9479 123.26 66.2969 123.031 66.7344C122.812 67.1615 122.703 67.6302 122.703 68.1406C122.703 68.6406 122.812 69.1094 123.031 69.5469C123.26 69.974 123.583 70.3229 124 70.5938C124.417 70.8542 124.901 70.9844 125.453 70.9844Z" fill="black"/>
</svg>
