<svg width="33" height="33" viewBox="0 0 33 33" fill="none" xmlns="http://www.w3.org/2000/svg">
<path d="M26.6729 28.0414L26.677 25.3747C26.6792 23.9602 26.1194 22.6028 25.1208 21.6011C24.1221 20.5993 22.7665 20.0353 21.352 20.0331L10.6853 20.0166C9.27083 20.0144 7.91341 20.5742 6.91166 21.5728C5.90992 22.5714 5.34591 23.9271 5.34371 25.3416L5.33957 28.0083M21.3685 9.36647C21.364 12.312 18.9724 14.6961 16.0269 14.6915C13.0814 14.6869 10.6973 12.2954 10.7019 9.34991C10.7065 6.40439 13.098 4.02029 16.0435 4.02486C18.989 4.02943 21.3731 6.42095 21.3685 9.36647Z" stroke="#828078" stroke-width="3" stroke-linecap="round" stroke-linejoin="round"  stroke="currentColor"/>
</svg>
