<svg width="20" height="20" viewBox="0 0 20 20" fill="none" xmlns="http://www.w3.org/2000/svg">
<path d="M19 10C19 11.1819 18.7672 12.3522 18.3149 13.4442C17.8626 14.5361 17.1997 15.5282 16.364 16.364C15.5282 17.1997 14.5361 17.8626 13.4442 18.3149C12.3522 18.7672 11.1819 19 10 19C8.8181 19 7.64778 18.7672 6.55585 18.3149C5.46392 17.8626 4.47177 17.1997 3.63604 16.364C2.80031 15.5282 2.13738 14.5361 1.68508 13.4442C1.23279 12.3522 1 11.1819 1 10C1 7.61305 1.94821 5.32387 3.63604 3.63604C5.32387 1.94821 7.61305 1 10 1C12.3869 1 14.6761 1.94821 16.364 3.63604C18.0518 5.32387 19 7.61305 19 10Z" stroke="currentColor" stroke-width="2" stroke-linecap="round" stroke-linejoin="round"/>
<path d="M15 17.5C14.683 11.313 5.317 11.313 5 17.5M12.5 7.25C12.5 7.91304 12.2366 8.54893 11.7678 9.01777C11.2989 9.48661 10.663 9.75 10 9.75C9.33696 9.75 8.70107 9.48661 8.23223 9.01777C7.76339 8.54893 7.5 7.91304 7.5 7.25C7.5 6.58696 7.76339 5.95107 8.23223 5.48223C8.70107 5.01339 9.33696 4.75 10 4.75C10.663 4.75 11.2989 5.01339 11.7678 5.48223C12.2366 5.95107 12.5 6.58696 12.5 7.25Z" stroke="currentColor" stroke-width="2" stroke-linecap="round" stroke-linejoin="round"/>
</svg>
